<svg width="860" height="901" viewBox="0 0 860 901" version="1.1" xmlns="http://www.w3.org/2000/svg" xmlns:xlink="http://www.w3.org/1999/xlink">
<g id="Canvas" fill="none">
<g id="Jobify_Logo">
<g id="Group">
<g id="Component">
<g id="Group_2">
<g id="noun_1248513_cc">
<g id="Group_3">
<g id="Group_4">
<g id="Vector">
<path d="M 244.653 477.471C 179.272 477.471 117.803 452.638 71.5757 407.545C -23.8586 314.467 -23.8586 163.004 71.5757 69.9295C 117.803 24.8334 179.272 -3.47193e-06 244.653 -3.47193e-06C 310.035 -3.47193e-06 371.503 24.8334 417.731 69.9295C 513.165 163.004 513.165 314.467 417.731 407.545C 371.503 452.638 310.035 477.471 244.653 477.471ZM 244.653 28.8412C 187.171 28.8412 133.126 50.6727 92.4814 90.316C 8.58041 172.157 8.58041 305.318 92.4814 387.159C 133.126 426.802 187.171 448.63 244.653 448.63C 302.136 448.63 356.18 426.798 396.825 387.159C 480.726 305.318 480.726 172.157 396.825 90.316C 356.176 50.6727 302.136 28.8412 244.653 28.8412Z" transform="translate(133.499 90.6367)" fill="white"/>
</g>
<g id="Vector_2">
<path d="M 84.3685 0L 8.8826e-06 0L 8.8826e-06 29.1995L 84.3685 29.1995L 84.3685 0Z" transform="matrix(0.715873 0.69823 -0.715873 0.69823 551.251 477.789)" fill="white"/>
</g>
<g id="Vector_3">
<path d="M 220.709 308.623L 1.44884e-05 93.3578L 95.7166 -1.41314e-05L 316.409 215.265L 220.709 308.623ZM 41.8154 93.3578L 220.709 267.834L 274.598 215.265L 95.7166 40.7889L 41.8154 93.3578Z" transform="translate(542.864 490.023)" fill="white"/>
</g>
<g id="Vector_4">
<path d="M 29.2035 9.37609e-06L -4.93478e-06 9.37609e-06L -4.93478e-06 104.496L 29.2035 104.496L 29.2035 9.37609e-06Z" transform="matrix(0.715873 0.69823 -0.715873 0.69823 665.294 536.469)" fill="white"/>
</g>
<g id="Vector_5">
<path d="M 29.2035 -1.97391e-05L -5.42826e-06 -1.97391e-05L -5.42826e-06 104.496L 29.2035 104.496L 29.2035 -1.97391e-05Z" transform="matrix(0.715873 0.69823 -0.715873 0.69823 790.749 658.828)" fill="white"/>
</g>
</g>
<g id="Group_5">
<g id="Vector_6">
<path d="M 89.2461 174.121C 40.0351 174.121 1.9984e-06 135.069 1.9984e-06 87.0626C 1.9984e-06 39.0564 40.0351 1.46186e-06 89.2461 1.46186e-06C 138.457 1.46186e-06 178.496 39.0564 178.496 87.0626C 178.496 135.069 138.461 174.121 89.2461 174.121ZM 89.2461 28.8452C 56.3405 28.8452 29.5659 54.96 29.5659 87.0626C 29.5659 119.165 56.3405 145.28 89.2461 145.28C 122.152 145.28 148.926 119.161 148.926 87.0626C 148.926 54.96 122.152 28.8452 89.2461 28.8452Z" transform="translate(288.91 186.557)" fill="white"/>
</g>
<g id="Vector_7">
<path d="M 223.422 85.8092C 203.458 50.6688 165.612 28.8412 124.644 28.8412C 83.6718 28.8412 45.8263 50.6727 25.8742 85.8092L -6.49481e-06 71.8376C 25.1662 27.5239 72.9202 2.43644e-06 124.644 2.43644e-06C 176.352 2.43644e-06 224.114 27.5279 249.28 71.8376L 223.422 85.8092Z" transform="translate(253.512 378.941)" fill="white"/>
</g>
</g>
</g>
</g>
</g>
<g id="Vector_8">
<path d="M 337.773 658.215L 337.749 629.373C 347.207 629.361 356.755 628.934 366.148 628.084L 368.87 656.798C 358.589 657.728 348.132 658.203 337.773 658.215ZM 306.677 656.861C 296.334 655.951 285.951 654.566 275.809 652.738L 281.175 624.38C 290.429 626.044 299.899 627.306 309.333 628.144L 306.677 656.861ZM 399.721 652.618L 394.294 624.264C 403.572 622.571 412.879 620.432 421.948 617.917L 430.048 645.652C 420.103 648.419 409.899 650.762 399.721 652.618ZM 245.47 645.848C 235.488 643.093 225.538 639.856 215.9 636.219L 226.566 609.322C 235.344 612.64 244.402 615.578 253.504 618.096L 245.47 645.848ZM 187.386 623.972C 178.083 619.462 168.919 614.492 160.153 609.191L 175.734 584.673C 183.715 589.507 192.072 594.037 200.552 598.149L 187.386 623.972ZM 134.446 592.045C 126.179 585.966 118.108 579.443 110.459 572.661L 130.35 551.316C 137.332 557.512 144.699 563.464 152.246 569.016L 134.446 592.045ZM 88.4114 551.205C 81.4292 543.764 74.7171 535.916 68.4675 527.88L 92.0171 510.444C 97.7264 517.777 103.849 524.946 110.226 531.74L 88.4114 551.205ZM 50.7951 502.859C 45.3149 494.265 40.1949 485.347 35.5742 476.349L 62.0133 463.436C 66.2206 471.639 70.8945 479.778 75.8999 487.614L 50.7951 502.859ZM 22.9195 448.582C 19.1706 439.189 15.8227 429.505 12.9742 419.789L 41.4023 411.857C 43.993 420.719 47.0503 429.549 50.4759 438.115L 22.9195 448.582ZM 662.048 419.106L 633.612 411.234C 636.19 402.376 638.372 393.303 640.091 384.257L 669.162 389.514C 667.271 399.438 664.885 409.39 662.048 419.106ZM 5.79964 390.209C 3.90061 380.309 2.43541 370.194 1.47362 360.13L 30.9126 357.432C 31.7967 366.621 33.1227 375.858 34.8662 384.888L 5.79964 390.209ZM 673.418 359.432L 643.979 356.801C 644.826 347.675 645.26 338.362 645.26 329.101L 645.26 327.772L 674.83 327.772L 674.83 328.898C 674.83 339.241 674.355 349.444 673.418 359.432ZM 29.5702 329.768L 0.00023827 329.489C -0.0120399 319.225 0.450439 309.262 1.33447 299.47L 30.7898 302.025C 29.9795 310.966 29.5579 320.072 29.5579 329.101L 29.5702 329.768ZM 643.86 300.136C 642.948 290.935 641.601 281.706 639.845 272.696L 668.891 267.311C 670.815 277.183 672.305 287.303 673.291 297.378L 643.86 300.136ZM 34.6247 274.568L 5.54589 269.367C 7.40399 259.471 9.76549 249.512 12.5772 239.767L 41.0421 247.571C 38.476 256.461 36.3191 265.547 34.6247 274.568ZM 633.252 245.747C 630.633 236.885 627.563 228.059 624.129 219.497L 651.657 208.982C 655.43 218.359 658.795 228.043 661.668 237.759L 633.252 245.747ZM 50.0011 221.273L 22.4079 210.922C 26.1037 201.533 30.3274 192.172 34.9358 183.087L 61.4239 195.893C 57.2125 204.18 53.3735 212.726 50.0011 221.273ZM 612.522 194.208C 608.274 185.973 603.588 177.85 598.587 170.057L 623.65 154.761C 629.131 163.303 634.279 172.205 638.933 181.231L 612.522 194.208ZM 75.2287 171.658L 50.0625 156.521C 55.4772 147.954 61.383 139.508 67.6203 131.42L 91.2476 148.757C 85.5628 156.138 80.1727 163.842 75.2287 171.658ZM 582.404 147.256C 576.715 139.959 570.58 132.805 564.167 126.003L 585.932 106.487C 592.963 113.948 599.7 121.788 605.941 129.791L 582.404 147.256ZM 109.37 127.392L 87.4619 108.016C 94.4154 100.547 101.811 93.3019 109.432 86.4798L 129.412 107.74C 122.447 113.968 115.71 120.578 109.37 127.392ZM 543.99 106.463C 536.995 100.292 529.616 94.3517 522.057 88.815L 539.819 65.75C 548.095 71.8137 556.182 78.3244 563.831 85.0826L 543.99 106.463ZM 151.235 89.9527L 133.329 66.9955C 141.543 60.9119 150.154 55.1037 158.958 49.7386L 174.629 74.1928C 166.595 79.0908 158.729 84.396 151.235 89.9527ZM 498.556 73.2028C 490.522 68.3806 482.152 63.8579 473.697 59.7782L 486.802 33.9229C 496.08 38.3978 505.256 43.3477 514.059 48.6489L 498.556 73.2028ZM 199.398 60.6245L 186.113 34.857C 195.379 30.3142 204.956 26.1507 214.578 22.4822L 225.346 49.3434C 216.571 52.6886 207.845 56.4769 199.398 60.6245ZM 447.659 48.6568C 438.855 45.3636 429.782 42.4295 420.692 39.9426L 428.677 12.1712C 438.634 14.9016 448.592 18.1111 458.247 21.7317L 447.659 48.6568ZM 252.264 40.4615L 244.099 12.742C 254.032 9.96369 264.235 7.59652 274.414 5.72034L 279.906 34.0586C 270.616 35.7751 261.325 37.9267 252.264 40.4615ZM 393.009 33.7153C 383.73 32.0627 374.248 30.8172 364.838 30.0108L 367.429 1.28139C 377.747 2.16359 388.13 3.5328 398.309 5.34511L 393.009 33.7153ZM 308.04 30.1865L 305.252 1.47699C 315.509 0.526926 325.97 0.0319349 336.349 0L 336.439 28.8412C 326.956 28.8652 317.408 29.3242 308.04 30.1865Z" transform="translate(41.5286 0.272705)" fill="white"/>
</g>
</g>
</g>
</g>
</g>
</svg>

