<svg width="262" height="226" viewBox="0 0 262 226" version="1.1" xmlns="http://www.w3.org/2000/svg" xmlns:xlink="http://www.w3.org/1999/xlink">
<g id="Canvas" fill="none">
<g id="wechat">
<g id="Group">
<g id="Vector">
<path d="M 181.221 73.9602C 157.008 75.2252 135.953 82.5652 118.859 99.1482C 101.588 115.902 93.7043 136.432 95.8593 161.882C 86.3953 160.71 77.7753 159.42 69.1063 158.69C 66.1123 158.438 62.5593 158.796 60.0233 160.227C 51.6053 164.977 43.5353 170.34 33.9703 176.319C 35.7253 168.381 36.8613 161.43 38.8723 154.744C 40.3513 149.83 39.6663 147.095 35.1393 143.895C 6.07331 123.374 -6.17869 92.6632 2.99031 61.0452C 11.4733 31.7952 32.3053 14.0562 60.6113 4.80925C 99.2463 -7.81075 142.665 5.06224 166.158 35.7362C 174.643 46.8162 179.846 59.2522 181.221 73.9602ZM 69.7843 64.1082C 70.0073 58.3252 64.9963 53.1152 59.0443 52.9412C 52.9503 52.7622 47.9383 57.4192 47.7603 63.4242C 47.5803 69.5102 52.2353 74.3872 58.3733 74.5432C 64.4583 74.6972 69.5593 70.0342 69.7843 64.1082ZM 127.925 52.9372C 121.951 53.0472 116.903 58.1352 117.009 63.9412C 117.118 69.9592 122.07 74.6672 128.213 74.5932C 134.372 74.5192 139.043 69.7612 138.985 63.6162C 138.934 57.5842 134.004 52.8262 127.925 52.9372Z" transform="translate(0.581665 0.919922)" fill="white"/>
</g>
<g id="Vector_2">
<path d="M 130.209 142.003C 122.542 138.589 115.509 133.467 108.021 132.685C 100.562 131.906 92.7214 136.209 84.9174 137.007C 61.1464 139.439 39.8504 132.814 22.2904 116.575C -11.1066 85.6852 -6.33455 38.3212 32.3045 13.0072C 66.6455 -9.49076 117.008 -1.99077 141.22 29.2262C 162.349 56.4662 159.866 92.6262 134.072 115.51C 126.608 122.133 123.922 127.583 128.711 136.314C 129.595 137.926 129.696 139.967 130.209 142.003L 130.209 142.003ZM 42.9355 57.5042C 47.8165 57.5092 51.8354 53.6892 52.0204 48.8682C 52.2154 43.7642 48.1104 39.4832 42.9994 39.4622C 37.9394 39.4392 33.7004 43.7802 33.8764 48.8082C 34.0424 53.6122 38.0895 57.4982 42.9355 57.5042ZM 99.1964 39.4822C 94.4604 39.4492 90.4364 43.3262 90.2434 48.1112C 90.0384 53.2282 94.0154 57.4302 99.0794 57.4432C 103.977 57.4592 107.847 53.7552 108.025 48.8812C 108.215 43.7522 104.236 39.5172 99.1964 39.4822L 99.1964 39.4822Z" transform="translate(105.992 83.8271)" fill="white"/>
</g>
</g>
</g>
</g>
</svg>

